/* XPM */
static char *ecfc411632a34ba7f5ff2bb1abb1e34b5B2fWKmYgq3oLqm9[] = {
/* columns rows colors chars-per-pixel */
"32 32 2 1 ",
"  c #606060",
". c #F8F8F8",
/* pixels */
"................................",
"                                ",
"................................",
"                                ",
"                                ",
"                                ",
"                                ",
"                                ",
"                                ",
"                                ",
"                                ",
"                                ",
"                                ",
"                                ",
"                                ",
"                                ",
"                                ",
"                                ",
"                                ",
"                                ",
"                                ",
"                                ",
"                                ",
"                                ",
"                                ",
"                                ",
"                                ",
"                                ",
"                                ",
"................................",
"                                ",
"................................"
};
