/* XPM */
static char *_6e158a8e7544d9394b23b3bc26d4fdfdQardkse2TZm3NCa[] = {
/* columns rows colors chars-per-pixel */
"32 32 3 1 ",
"  c None",
". c #040404",
"X c white",
/* pixels */
"                                ",
"                                ",
"             ..                 ",
"             ..                 ",
"   ......  ..XX..      ......   ",
"   ......  ..XX..      ......   ",
"   ....XX..XXXX..    ..XX....   ",
"   ....XX..XXXX..    ..XX....   ",
"     ..XXXX..........XXXX..     ",
"     ..XXXX..........XXXX..     ",
"       ..XXXXXXXXXXXXXX..       ",
"       ..XXXXXXXXXXXXXX..       ",
"       ..XX..XXXXXX..XX..       ",
"       ..XX..XXXXXX..XX..       ",
"       ..XXXXXX..XXXXXX..       ",
"       ..XXXXXX..XXXXXX..       ",
"     ..XX..XX......XX..XX..     ",
"     ..XX..XX......XX..XX..     ",
"     ..XXXXXXXXXXXXXXXXXX..     ",
"     ..XXXXXXXXXXXXXXXXXX..     ",
"     ..XXXX..XXXXXX..XXXX..     ",
"     ..XXXX..XXXXXX..XXXX..     ",
"     ..XX....XXXXXX....XX..     ",
"     ..XX....XXXXXX....XX..     ",
"     ..XXXXXXXXXXXXXXXXXX..     ",
"     ..XXXXXXXXXXXXXXXXXX..     ",
"       ..XXXX......XXXX..       ",
"       ..XXXX......XXXX..       ",
"         ....      ....         ",
"         ....      ....         ",
"                                ",
"                                "
};
