/* XPM */
static char *_cfa94abb68f4177a43163b0e0a2c9d3OyI4vT7zYsDR99UZ[] = {
/* columns rows colors chars-per-pixel */
"32 32 4 1 ",
"  c black",
". c #606060",
"X c gray66",
"o c white",
/* pixels */
"oooooooooooo          oooooooooo",
"oooooooooooo          oooooooooo",
"oooooooo    ..XXXXXX..    oooooo",
"oooooooo    ..XXXXXX..    oooooo",
"oooooo  ..XXooooooooooXX..  oooo",
"oooooo  ..XXooooooooooXX..  oooo",
"oooo  ..oooooooooooooooooo..  oo",
"oooo  ..oooooooooooooooooo..  oo",
"oooo  XXooooooooooooooooooXX  oo",
"oooo  XXooooooooooooooooooXX  oo",
"oooo  ..XXXXooooooooooXXXX..  oo",
"oooo  ..XXXXooooooooooXXXX..  oo",
"oooo  ..XX..XXXXXXXXXX..XX..  oo",
"oooo  ..XX..XXXXXXXXXX..XX..  oo",
"ooXX  ..XX....oooooo....XX..  oo",
"ooXX  ..XX....oooooo....XX..  oo",
"XXXX  XXXX....oooooo....XXXX  oo",
"XXXX  XXXX....oooooo....XXXX  oo",
"XX..  XXXXXXXXooooooXXXXXXXX  oo",
"XX..  XXXXXXXXooooooXXXXXXXX  oo",
"XX..  ..XXXXXXooooooXXXXXX..  oo",
"XX..  ..XXXXXXooooooXXXXXX..  oo",
"XX..  ..XX....oooooo....XX..  oo",
"XX..  ..XX....oooooo....XX..  oo",
"oo....  XX....oooooo....XX  ..oo",
"oo....  XX....oooooo....XX  ..oo",
"ooXX....    ..oooooo..    ..oooo",
"ooXX....    ..oooooo..    ..oooo",
"ooooXX......          ....oooooo",
"ooooXX......          ....oooooo",
"ooooooXXXXXX..........oooooooooo",
"ooooooXXXXXX..........oooooooooo"
};
