/* XPM */
static char *_92aa9761c464c1ab5f005d75122c9dejv68EH8SHg3Aqsmi[] = {
/* columns rows colors chars-per-pixel */
"32 32 2 1 ",
"  c gray66",
". c white",
/* pixels */
"................................",
"................................",
"..  ..  ........................",
"..  ..  ........................",
"..  ..  ........................",
"..  ..  ..  ..  ................",
"..........  ..  ................",
"..........  ..  ................",
"..........  ..  ................",
"................................",
"....  ..  ......................",
"....  ..  ......................",
"....  ..  ......................",
"....  ..  ......................",
"................................",
"................................",
"................................",
"................................",
"..................  ..  ........",
"..................  ..  ........",
"..................  ..  ........",
"..................  ..  ..  ..  ",
"..........................  ..  ",
"..........................  ..  ",
"..........................  ..  ",
"................................",
"....................  ..  ......",
"....................  ..  ......",
"....................  ..  ......",
"....................  ..  ......",
"................................",
"................................"
};
