/* XPM */
static char *_0496364802346b6e7441e23a190a545qmkecENOG6Nes0RN[] = {
/* columns rows colors chars-per-pixel */
"32 32 25 1 ",
"  c None",
". c black",
"X c gray3",
"o c #0C0C0C",
"O c #0E0E0E",
"+ c #111111",
"@ c gray7",
"# c #131313",
"$ c gray8",
"% c gray9",
"& c #181818",
"* c gray10",
"= c gray11",
"- c #A0A0A0",
"; c gray64",
": c #A7A7A7",
"> c #A9A9A9",
", c #AAAAAA",
"< c gray95",
"1 c gray97",
"2 c gray98",
"3 c #FBFBFB",
"4 c gray99",
"5 c #FDFDFD",
"6 c white",
/* pixels */
"          ............          ",
"          ............          ",
"        ..::::::::::::..        ",
"        ..::::::::::::..        ",
"      ..::>>>>>>::::::::..      ",
"      ..::::::::::::::::..      ",
"      ..::::::::::::::::..      ",
"      ..:::;>>:>;:::::::..      ",
"    ......::66666666::......    ",
"    ......::66666666::......    ",
"    ....66.........@..66....    ",
"    ....66.........o..66....    ",
"  ..66..6666666666626666..66..  ",
"  ..66..6666216666<16666..66..  ",
"  ..66666666%@6666@o66666666..  ",
"  ..66666666*%6666%*66666666..  ",
"    ..@@6666o%6666@@6666....    ",
"    ....6666%=6666@@6666....    ",
"    ......6666;;;-6666......    ",
"    X.....6666;;;;6666......    ",
"  ..6666.............o..6666..  ",
"  ..6666................6666..  ",
"  ..6666................6666..  ",
"  ..6666................6666..  ",
"    ......::::....::::......    ",
"    ......::::....::::......    ",
"      ..::....::::....::..      ",
"      ..::....::::....::..      ",
"      ..::::::....::::::..      ",
"      ..::::::....::::::..      ",
"        ......    ......        ",
"        ......    ......        "
};
